<svg width="112" height="16" viewBox="0 0 112 16" fill="none" xmlns="http://www.w3.org/2000/svg">
<path d="M8.74219 7.33594C8.74219 8.13281 8.51562 8.74219 8.0625 9.16406C7.61458 9.58073 6.97917 9.78906 6.15625 9.78906C5.33854 9.78906 4.68229 9.51562 4.1875 8.96875C3.69792 8.41667 3.45312 7.66667 3.45312 6.71875V5.85938C3.45312 4.94271 3.70052 4.21094 4.19531 3.66406C4.69531 3.11198 5.34896 2.83594 6.15625 2.83594C6.98958 2.83594 7.63021 3.04948 8.07812 3.47656C8.52604 3.90365 8.75 4.50521 8.75 5.28125H7.60938C7.60938 4.76562 7.48438 4.39844 7.23438 4.17969C6.98958 3.95573 6.63021 3.84375 6.15625 3.84375C5.66667 3.84375 5.28125 4.02344 5 4.38281C4.71875 4.74219 4.57812 5.24219 4.57812 5.88281V6.76562C4.57812 7.39062 4.71875 7.88281 5 8.24219C5.28125 8.60156 5.66667 8.78125 6.15625 8.78125C6.63542 8.78125 6.99479 8.67188 7.23438 8.45312C7.47917 8.23438 7.60156 7.86198 7.60156 7.33594H8.74219ZM1.60938 6.30469C1.60938 7.20052 1.81771 8.03125 2.23438 8.79688C2.65104 9.55729 3.21615 10.1536 3.92969 10.5859C4.64844 11.0182 5.42448 11.2344 6.25781 11.2344C7.09115 11.2344 7.86458 11.0182 8.57812 10.5859C9.29167 10.1536 9.85677 9.55729 10.2734 8.79688C10.6901 8.03125 10.8984 7.20052 10.8984 6.30469C10.8984 5.41927 10.6927 4.59896 10.2812 3.84375C9.86979 3.08854 9.30469 2.49479 8.58594 2.0625C7.8724 1.625 7.09635 1.40625 6.25781 1.40625C5.42448 1.40625 4.64844 1.6224 3.92969 2.05469C3.21094 2.48177 2.64323 3.07552 2.22656 3.83594C1.8151 4.59635 1.60938 5.41927 1.60938 6.30469ZM0.710938 6.30469C0.710938 5.2526 0.953125 4.27604 1.4375 3.375C1.92708 2.47396 2.60156 1.76562 3.46094 1.25C4.32552 0.729167 5.25781 0.46875 6.25781 0.46875C7.25781 0.46875 8.1875 0.729167 9.04688 1.25C9.90625 1.76562 10.5781 2.47396 11.0625 3.375C11.5521 4.27604 11.7969 5.2526 11.7969 6.30469C11.7969 7.33073 11.5625 8.29167 11.0938 9.1875C10.625 10.0833 9.95833 10.8047 9.09375 11.3516C8.23438 11.8932 7.28906 12.1641 6.25781 12.1641C5.23177 12.1641 4.28646 11.8958 3.42188 11.3594C2.5625 10.8177 1.89583 10.099 1.42188 9.20312C0.947917 8.30729 0.710938 7.34115 0.710938 6.30469ZM21.2188 6.92969C19.9323 6.5599 18.9948 6.10677 18.4062 5.57031C17.8229 5.02865 17.5312 4.36198 17.5312 3.57031C17.5312 2.67448 17.888 1.9349 18.6016 1.35156C19.3203 0.763021 20.2526 0.46875 21.3984 0.46875C22.1797 0.46875 22.875 0.619792 23.4844 0.921875C24.099 1.22396 24.5729 1.64062 24.9062 2.17188C25.2448 2.70312 25.4141 3.28385 25.4141 3.91406H23.9062C23.9062 3.22656 23.6875 2.6875 23.25 2.29688C22.8125 1.90104 22.1953 1.70312 21.3984 1.70312C20.6589 1.70312 20.0807 1.86719 19.6641 2.19531C19.2526 2.51823 19.0469 2.96875 19.0469 3.54688C19.0469 4.01042 19.2422 4.40365 19.6328 4.72656C20.0286 5.04427 20.6979 5.33594 21.6406 5.60156C22.5885 5.86719 23.3281 6.16146 23.8594 6.48438C24.3958 6.80208 24.7917 7.17448 25.0469 7.60156C25.3073 8.02865 25.4375 8.53125 25.4375 9.10938C25.4375 10.0312 25.0781 10.7708 24.3594 11.3281C23.6406 11.8802 22.6797 12.1562 21.4766 12.1562C20.6953 12.1562 19.9661 12.0078 19.2891 11.7109C18.612 11.4089 18.0885 10.9974 17.7188 10.4766C17.3542 9.95573 17.1719 9.36458 17.1719 8.70312H18.6797C18.6797 9.39062 18.9323 9.9349 19.4375 10.3359C19.9479 10.7318 20.6276 10.9297 21.4766 10.9297C22.2682 10.9297 22.875 10.7682 23.2969 10.4453C23.7188 10.1224 23.9297 9.68229 23.9297 9.125C23.9297 8.56771 23.7344 8.13802 23.3438 7.83594C22.9531 7.52865 22.2448 7.22656 21.2188 6.92969ZM32.3594 11.1641C31.7969 11.8255 30.9714 12.1562 29.8828 12.1562C28.9818 12.1562 28.2943 11.8958 27.8203 11.375C27.3516 10.849 27.1146 10.0729 27.1094 9.04688V3.54688H28.5547V9.00781C28.5547 10.2891 29.0755 10.9297 30.1172 10.9297C31.2214 10.9297 31.9557 10.5182 32.3203 9.69531V3.54688H33.7656V12H32.3906L32.3594 11.1641ZM43.1094 7.86719C43.1094 9.15365 42.8151 10.1901 42.2266 10.9766C41.638 11.763 40.8411 12.1562 39.8359 12.1562C38.8099 12.1562 38.0026 11.8307 37.4141 11.1797V15.25H35.9688V3.54688H37.2891L37.3594 4.48438C37.9479 3.75521 38.7656 3.39062 39.8125 3.39062C40.8281 3.39062 41.6302 3.77344 42.2188 4.53906C42.8125 5.30469 43.1094 6.36979 43.1094 7.73438V7.86719ZM41.6641 7.70312C41.6641 6.75 41.4609 5.9974 41.0547 5.44531C40.6484 4.89323 40.0911 4.61719 39.3828 4.61719C38.5078 4.61719 37.8516 5.00521 37.4141 5.78125V9.82031C37.8464 10.5911 38.5078 10.9766 39.3984 10.9766C40.0911 10.9766 40.6406 10.7031 41.0469 10.1562C41.4583 9.60417 41.6641 8.78646 41.6641 7.70312ZM50.1719 12C50.0885 11.8333 50.0208 11.5365 49.9688 11.1094C49.2969 11.8073 48.4948 12.1562 47.5625 12.1562C46.7292 12.1562 46.0443 11.9219 45.5078 11.4531C44.9766 10.9792 44.7109 10.3802 44.7109 9.65625C44.7109 8.77604 45.0443 8.09375 45.7109 7.60938C46.3828 7.11979 47.3255 6.875 48.5391 6.875H49.9453V6.21094C49.9453 5.70573 49.7943 5.30469 49.4922 5.00781C49.1901 4.70573 48.7448 4.55469 48.1562 4.55469C47.6406 4.55469 47.2083 4.6849 46.8594 4.94531C46.5104 5.20573 46.3359 5.52083 46.3359 5.89062H44.8828C44.8828 5.46875 45.0312 5.0625 45.3281 4.67188C45.6302 4.27604 46.0365 3.96354 46.5469 3.73438C47.0625 3.50521 47.6276 3.39062 48.2422 3.39062C49.2161 3.39062 49.9792 3.63542 50.5312 4.125C51.0833 4.60938 51.3698 5.27865 51.3906 6.13281V10.0234C51.3906 10.7995 51.4896 11.4167 51.6875 11.875V12H50.1719ZM47.7734 10.8984C48.2266 10.8984 48.6562 10.7812 49.0625 10.5469C49.4688 10.3125 49.763 10.0078 49.9453 9.63281V7.89844H48.8125C47.0417 7.89844 46.1562 8.41667 46.1562 9.45312C46.1562 9.90625 46.3073 10.2604 46.6094 10.5156C46.9115 10.7708 47.2995 10.8984 47.7734 10.8984ZM60.8125 7.86719C60.8125 9.15885 60.5156 10.1979 59.9219 10.9844C59.3281 11.7656 58.5312 12.1562 57.5312 12.1562C56.4635 12.1562 55.638 11.7786 55.0547 11.0234L54.9844 12H53.6562V0H55.1016V4.47656C55.6849 3.7526 56.4896 3.39062 57.5156 3.39062C58.5417 3.39062 59.3464 3.77865 59.9297 4.55469C60.5182 5.33073 60.8125 6.39323 60.8125 7.74219V7.86719ZM59.3672 7.70312C59.3672 6.71875 59.1771 5.95833 58.7969 5.42188C58.4167 4.88542 57.8698 4.61719 57.1562 4.61719C56.2031 4.61719 55.5182 5.0599 55.1016 5.94531V9.60156C55.5443 10.487 56.2344 10.9297 57.1719 10.9297C57.8646 10.9297 58.4036 10.6615 58.7891 10.125C59.1745 9.58854 59.3672 8.78125 59.3672 7.70312ZM67.8594 12C67.776 11.8333 67.7083 11.5365 67.6562 11.1094C66.9844 11.8073 66.1823 12.1562 65.25 12.1562C64.4167 12.1562 63.7318 11.9219 63.1953 11.4531C62.6641 10.9792 62.3984 10.3802 62.3984 9.65625C62.3984 8.77604 62.7318 8.09375 63.3984 7.60938C64.0703 7.11979 65.013 6.875 66.2266 6.875H67.6328V6.21094C67.6328 5.70573 67.4818 5.30469 67.1797 5.00781C66.8776 4.70573 66.4323 4.55469 65.8438 4.55469C65.3281 4.55469 64.8958 4.6849 64.5469 4.94531C64.1979 5.20573 64.0234 5.52083 64.0234 5.89062H62.5703C62.5703 5.46875 62.7188 5.0625 63.0156 4.67188C63.3177 4.27604 63.724 3.96354 64.2344 3.73438C64.75 3.50521 65.3151 3.39062 65.9297 3.39062C66.9036 3.39062 67.6667 3.63542 68.2188 4.125C68.7708 4.60938 69.0573 5.27865 69.0781 6.13281V10.0234C69.0781 10.7995 69.1771 11.4167 69.375 11.875V12H67.8594ZM65.4609 10.8984C65.9141 10.8984 66.3438 10.7812 66.75 10.5469C67.1562 10.3125 67.4505 10.0078 67.6328 9.63281V7.89844H66.5C64.7292 7.89844 63.8438 8.41667 63.8438 9.45312C63.8438 9.90625 63.9948 10.2604 64.2969 10.5156C64.599 10.7708 64.987 10.8984 65.4609 10.8984ZM76.2656 9.75781C76.2656 9.36719 76.1172 9.0651 75.8203 8.85156C75.5286 8.63281 75.0156 8.44531 74.2812 8.28906C73.5521 8.13281 72.9714 7.94531 72.5391 7.72656C72.112 7.50781 71.7943 7.2474 71.5859 6.94531C71.3828 6.64323 71.2812 6.28385 71.2812 5.86719C71.2812 5.17448 71.5729 4.58854 72.1562 4.10938C72.7448 3.63021 73.4948 3.39062 74.4062 3.39062C75.3646 3.39062 76.1406 3.63802 76.7344 4.13281C77.3333 4.6276 77.6328 5.26042 77.6328 6.03125H76.1797C76.1797 5.63542 76.0104 5.29427 75.6719 5.00781C75.3385 4.72135 74.9167 4.57812 74.4062 4.57812C73.8802 4.57812 73.4688 4.69271 73.1719 4.92188C72.875 5.15104 72.7266 5.45052 72.7266 5.82031C72.7266 6.16927 72.8646 6.43229 73.1406 6.60938C73.4167 6.78646 73.9141 6.95573 74.6328 7.11719C75.3568 7.27865 75.9427 7.47135 76.3906 7.69531C76.8385 7.91927 77.1693 8.1901 77.3828 8.50781C77.6016 8.82031 77.7109 9.20312 77.7109 9.65625C77.7109 10.4115 77.4089 11.0182 76.8047 11.4766C76.2005 11.9297 75.4167 12.1562 74.4531 12.1562C73.776 12.1562 73.1771 12.0365 72.6562 11.7969C72.1354 11.5573 71.7266 11.224 71.4297 10.7969C71.138 10.3646 70.9922 9.89844 70.9922 9.39844H72.4375C72.4635 9.88281 72.6562 10.2682 73.0156 10.5547C73.3802 10.8359 73.8594 10.9766 74.4531 10.9766C75 10.9766 75.4375 10.8672 75.7656 10.6484C76.099 10.4245 76.2656 10.1276 76.2656 9.75781ZM83.1016 12.1562C81.9557 12.1562 81.0234 11.7812 80.3047 11.0312C79.5859 10.276 79.2266 9.26823 79.2266 8.00781V7.74219C79.2266 6.90365 79.3854 6.15625 79.7031 5.5C80.026 4.83854 80.474 4.32292 81.0469 3.95312C81.625 3.57812 82.25 3.39062 82.9219 3.39062C84.0208 3.39062 84.875 3.7526 85.4844 4.47656C86.0938 5.20052 86.3984 6.23698 86.3984 7.58594V8.1875H80.6719C80.6927 9.02083 80.9349 9.69531 81.3984 10.2109C81.8672 10.7214 82.4609 10.9766 83.1797 10.9766C83.6901 10.9766 84.1224 10.8724 84.4766 10.6641C84.8307 10.4557 85.1406 10.1797 85.4062 9.83594L86.2891 10.5234C85.5807 11.612 84.5182 12.1562 83.1016 12.1562ZM82.9219 4.57812C82.3385 4.57812 81.849 4.79167 81.4531 5.21875C81.0573 5.64062 80.8125 6.23438 80.7188 7H84.9531V6.89062C84.9115 6.15625 84.7135 5.58854 84.3594 5.1875C84.0052 4.78125 83.526 4.57812 82.9219 4.57812ZM93.8828 12H92.3828V0.625H93.8828V12ZM97.7734 3.54688L97.8203 4.60938C98.4661 3.79688 99.3099 3.39062 100.352 3.39062C102.138 3.39062 103.039 4.39844 103.055 6.41406V12H101.609V6.40625C101.604 5.79688 101.464 5.34635 101.188 5.05469C100.917 4.76302 100.492 4.61719 99.9141 4.61719C99.4453 4.61719 99.0339 4.74219 98.6797 4.99219C98.3255 5.24219 98.0495 5.57031 97.8516 5.97656V12H96.4062V3.54688H97.7734ZM108.625 10.9766C109.141 10.9766 109.591 10.8203 109.977 10.5078C110.362 10.1953 110.576 9.80469 110.617 9.33594H111.984C111.958 9.82031 111.792 10.2812 111.484 10.7188C111.177 11.1562 110.766 11.5052 110.25 11.7656C109.74 12.026 109.198 12.1562 108.625 12.1562C107.474 12.1562 106.557 11.7734 105.875 11.0078C105.198 10.237 104.859 9.1849 104.859 7.85156V7.60938C104.859 6.78646 105.01 6.05469 105.312 5.41406C105.615 4.77344 106.047 4.27604 106.609 3.92188C107.177 3.56771 107.846 3.39062 108.617 3.39062C109.565 3.39062 110.352 3.67448 110.977 4.24219C111.607 4.8099 111.943 5.54688 111.984 6.45312H110.617C110.576 5.90625 110.367 5.45833 109.992 5.10938C109.622 4.75521 109.164 4.57812 108.617 4.57812C107.883 4.57812 107.312 4.84375 106.906 5.375C106.505 5.90104 106.305 6.66406 106.305 7.66406V7.9375C106.305 8.91146 106.505 9.66146 106.906 10.1875C107.307 10.7135 107.88 10.9766 108.625 10.9766Z" fill="#666666"/>
</svg>
